<?xml version="1.0"?>
<svg version="1.1" xmlns="http://www.w3.org/2000/svg" width="242px" height="45px" style=""><path fill="#ffba07" d="M0,14.3173828125q0-0.287109375,0.39990234375-0.44091796875t0.52294921875-0.15380859375l0.7587890625-0.123046875q0.7587890625-0.123046875,1.5380859375-0.21533203125t1.517578125-0.17431640625q2.6044921875-0.328125,5.208984375-0.64599609375t5.25-0.31787109375q0.205078125,0,0.56396484375,0.0205078125t0.7177734375,0.11279296875t0.615234375,0.25634765625t0.25634765625,0.451171875q0,0.205078125-0.19482421875,0.35888671875t-0.46142578125,0.23583984375t-0.54345703125,0.1025390625t-0.44091796875,0.0205078125l-0.35888671875,0t-0.35888671875-0.08203125q-1.0869140625,0-2.14306640625,0.1025390625t-2.14306640625,0.1845703125q0.287109375,0.328125,0.3076171875,0.9228515625t0.041015625,1.025390625q0,7.259765625,0.1025390625,14.4375t0.1845703125,14.4990234375l0,0.041015625q-0.6767578125,0.5947265625-1.15869140625,0.7587890625t-0.97412109375,0.1640625q-0.4716796875,0-0.95361328125-0.17431640625t-1.15869140625-0.74853515625l0-0.041015625l0.1640625-16.0986328125q0-1.599609375-0.041015625-3.52734375t-0.041015625-3.90673828125t0.0615234375-3.82470703125t0.328125-3.2197265625q-1.2099609375,0.123046875-2.5634765625,0.369140625q-1.1689453125,0.205078125-2.2353515625,0.205078125l-0.369140625,0q-0.08203125,0-0.48193359375,0.0205078125t-0.8203125-0.0205078125t-0.7587890625-0.1640625t-0.33837890625-0.41015625z M20.275458984375,29.0009765625q0-1.2099609375,0.13330078125-2.9326171875t0.4921875-3.5888671875t0.9638671875-3.7119140625t1.54833984375-3.2607421875t2.255859375-2.2353515625q1.0869140625-0.6767578125,2.501953125-0.6767578125q0.287109375,0,0.5947265625,0.041015625q3.568359375,0.328125,5.48583984375,1.63037109375t2.79931640625,3.3017578125t1.025390625,4.552734375t0.1435546875,5.38330078125q0,2.2763671875-0.42041015625,4.95263671875t-1.48681640625,4.99365234375t-2.94287109375,3.86572265625t-4.76806640625,1.54833984375q-1.763671875,0-3.08642578125-0.64599609375t-2.24560546875-1.72265625t-1.517578125-2.501953125t-0.90234375-2.953125t-0.44091796875-3.08642578125t-0.13330078125-2.953125z M24.438544921875,28.078125q0,0.8818359375,0.0205078125,2.16357421875t0.17431640625,2.69677734375t0.39990234375,2.81982421875t0.72802734375,2.55322265625t1.22021484375,1.88671875t1.7841796875,0.779296875l0.1025390625,0q0.943359375,0,1.681640625-0.7177734375q0.779296875-0.7587890625,1.38427734375-1.8251953125t1.0458984375-2.24560546875t0.78955078125-2.02001953125l-0.08203125,0.1845703125q0.5947265625-1.88671875,0.7998046875-3.86572265625t0.205078125-3.90673828125q0-0.9228515625-0.123046875-2.22509765625t-0.39990234375-2.71728515625t-0.7177734375-2.79931640625t-1.11767578125-2.40966796875t-1.5791015625-1.55859375q-0.65625-0.3896484375-1.4560546875-0.41015625q-0.3076171875,0-0.615234375,0.0615234375q-1.0458984375,0.205078125-1.7841796875,1.025390625t-1.19970703125,2.02001953125t-0.70751953125,2.625t-0.37939453125,2.87109375t-0.15380859375,2.7685546875t-0.0205078125,2.24560546875z M33.687568359375,34.39453125l0-0.041015625l0,0.041015625z M42.45814453125,29.0009765625q0-1.2099609375,0.13330078125-2.9326171875t0.4921875-3.5888671875t0.9638671875-3.7119140625t1.54833984375-3.2607421875t2.255859375-2.2353515625q1.0869140625-0.6767578125,2.501953125-0.6767578125q0.287109375,0,0.5947265625,0.041015625q3.568359375,0.328125,5.48583984375,1.63037109375t2.79931640625,3.3017578125t1.025390625,4.552734375t0.1435546875,5.38330078125q0,2.2763671875-0.42041015625,4.95263671875t-1.48681640625,4.99365234375t-2.94287109375,3.86572265625t-4.76806640625,1.54833984375q-1.763671875,0-3.08642578125-0.64599609375t-2.24560546875-1.72265625t-1.517578125-2.501953125t-0.90234375-2.953125t-0.44091796875-3.08642578125t-0.13330078125-2.953125z M46.62123046875,28.078125q0,0.8818359375,0.0205078125,2.16357421875t0.17431640625,2.69677734375t0.39990234375,2.81982421875t0.72802734375,2.55322265625t1.22021484375,1.88671875t1.7841796875,0.779296875l0.1025390625,0q0.943359375,0,1.681640625-0.7177734375q0.779296875-0.7587890625,1.38427734375-1.8251953125t1.0458984375-2.24560546875t0.78955078125-2.02001953125l-0.08203125,0.1845703125q0.5947265625-1.88671875,0.7998046875-3.86572265625t0.205078125-3.90673828125q0-0.9228515625-0.123046875-2.22509765625t-0.39990234375-2.71728515625t-0.7177734375-2.79931640625t-1.11767578125-2.40966796875t-1.5791015625-1.55859375q-0.65625-0.3896484375-1.4560546875-0.41015625q-0.3076171875,0-0.615234375,0.0615234375q-1.0458984375,0.205078125-1.7841796875,1.025390625t-1.19970703125,2.02001953125t-0.70751953125,2.625t-0.37939453125,2.87109375t-0.15380859375,2.7685546875t-0.0205078125,2.24560546875z M55.87025390625,34.39453125l0-0.041015625l0,0.041015625z M64.681845703125,32.958984375l0-3.240234375q0-3.36328125,0.11279296875-6.67529296875t0.19482421875-6.67529296875q0-0.6357421875-0.041015625-1.4150390625q-0.0205078125-0.2255859375-0.0205078125-0.4306640625q0-0.5126953125,0.08203125-1.0048828125q0.1025390625-0.65625,0.50244140625-1.1279296875t1.32275390625-0.4716796875q0.7587890625,0,1.15869140625,0.1640625t0.56396484375,0.48193359375t0.1845703125,0.7998046875t0.0205078125,1.11767578125q0,3.404296875-0.08203125,6.8291015625q-0.0615234375,2.2763671875-0.0615234375,4.552734375q0,1.1484375,0.0205078125,2.296875q0.041015625,3.404296875,0.31787109375,6.80859375t0.93310546875,6.7265625q2.05078125-0.08203125,4.1015625-0.205078125t4.1015625-0.123046875q0.205078125,0,0.58447265625,0.041015625t0.7587890625,0.1435546875t0.64599609375,0.2666015625t0.2666015625,0.4716796875q0,0.205078125-0.1845703125,0.3486328125t-0.3486328125,0.2255859375l-0.041015625,0q-0.328125,0.1640625-1.30224609375,0.31787109375t-2.21484375,0.23583984375t-2.6044921875,0.1435546875t-2.5634765625,0.1025390625t-2.08154296875,0.0615234375t-1.0869140625,0.0205078125l-0.1845703125,0q-0.4921875,0-1.107421875-0.1640625q-0.73828125-0.205078125-0.9228515625-0.7998046875q-0.369140625-1.517578125-0.58447265625-3.14794921875t-0.328125-3.31201171875t-0.11279296875-3.36328125z M84.1369921875,33.41015625q0-0.41015625,1.11767578125-0.615234375t2.625-0.29736328125t3.12744140625-0.07177734375t2.625,0.0205078125q0.5126953125,0,1.19970703125,0.19482421875t0.68701171875,0.64599609375q0,0.369140625-0.328125,0.54345703125t-0.76904296875,0.25634765625t-0.861328125,0.08203125l-0.54345703125,0q-1.435546875,0-2.69677734375-0.0615234375t-2.61474609375-0.0615234375q-0.41015625,0-0.83056640625,0.041015625t-0.78955078125,0.041015625l-0.58447265625,0t-0.6357421875-0.0615234375t-0.5126953125-0.205078125t-0.21533203125-0.451171875z M100.55698242188,30.6005859375q0-3.52734375,0.19482421875-6.97265625t0.48193359375-6.97265625q0.08203125-0.9228515625,0.1025390625-1.7841796875t0.19482421875-1.50732421875t0.615234375-1.025390625t1.36376953125-0.37939453125q0.5947265625,0,1.24072265625,0.205078125t0.64599609375,0.9638671875q0,2.8505859375-0.23583984375,5.60888671875t-0.31787109375,5.48583984375q2.2353515625-2.5224609375,4.7783203125-4.70654296875t5.3935546875-4.31689453125q0.41015625-0.287109375,1.0458984375-0.3076171875q0.205078125,0,0.35888671875,0.0205078125t0.31787109375,0.0615234375q0.205078125,0.08203125,0.42041015625,0.19482421875t0.21533203125,0.31787109375q0,0.1640625-0.1845703125,0.287109375q-2.1328125,1.72265625-4.21435546875,3.5068359375t-3.96826171875,3.814453125q0.24609375,0.4716796875,0.42041015625,0.8818359375t0.37939453125,0.8818359375q1.72265625,4.0810546875,2.94287109375,8.35693359375t2.59423828125,8.47998046875q0.123046875,0.4716796875,0.35888671875,0.97412109375t0.44091796875,1.0048828125t0.35888671875,0.943359375t0.15380859375,0.72802734375q0,0.369140625-0.23583984375,0.58447265625t-0.54345703125,0.33837890625t-0.66650390625,0.1640625t-0.66650390625,0.041015625q-0.7177734375,0-1.28173828125-0.205078125t-0.89208984375-0.9228515625q-1.517578125-4.83984375-2.92236328125-9.6796875t-2.84033203125-9.76171875q-0.4716796875,0.4716796875-0.943359375,1.17919921875t-0.861328125,1.30224609375q0,3.076171875,0.1435546875,6.111328125t0.4921875,6.111328125q0.08203125,0.8818359375,0.27685546875,1.763671875t0.19482421875,1.8046875q0,0.6767578125-0.697265625,0.943359375t-1.5380859375,0.2666015625q-0.9228515625,0-1.38427734375-0.1845703125t-0.65625-0.48193359375t-0.23583984375-0.65625t-0.123046875-0.68701171875q-0.4716796875-3.240234375-0.5947265625-6.40869140625t-0.123046875-6.36767578125z M121.57072265625,43.212890625q0.08203125-4.2861328125,0.35888671875-8.5517578125t0.48193359375-8.5517578125q0.041015625-1.640625,0.041015625-2.98388671875t0.13330078125-2.32763671875t0.4921875-1.50732421875t1.19970703125-0.52294921875q0.7177734375,0,1.0869140625,0.205078125t0.56396484375,0.52294921875t0.23583984375,0.7177734375t0.041015625,0.81005859375q0,0.5947265625,0.041015625,1.17919921875t0.041015625,1.17919921875q0,4.3271484375-0.23583984375,8.6337890625t-0.23583984375,8.6748046875q0,0.6357421875,0.0205078125,1.28173828125t0.0205078125,1.32275390625q0,0.24609375-0.2255859375,0.41015625t-0.56396484375,0.27685546875t-0.7177734375,0.15380859375t-0.62548828125,0.041015625q-0.287109375,0-0.64599609375-0.041015625t-0.697265625-0.17431640625t-0.57421875-0.31787109375t-0.23583984375-0.4306640625z M122.71916015625,15.404296875q0-0.205078125,0.0615234375-0.46142578125t0.1435546875-0.46142578125q0.041015625-0.24609375,0.123046875-0.8408203125t0.29736328125-1.15869140625t0.5947265625-1.0048828125t1.07666015625-0.44091796875l0.3896484375,0q0.328125,0.08203125,0.66650390625,0.205078125t0.33837890625,0.5947265625q0,0.205078125-0.0205078125,0.3896484375t-0.0615234375,0.41015625q-0.1640625,1.2099609375-0.31787109375,1.9072265625t-0.35888671875,1.05615234375t-0.52294921875,0.46142578125t-0.81005859375,0.1435546875q-0.1640625,0-0.44091796875-0.0205078125t-0.533203125-0.1025390625t-0.44091796875-0.25634765625t-0.1845703125-0.42041015625z M129.35692382813,14.3173828125q0-0.287109375,0.39990234375-0.44091796875t0.52294921875-0.15380859375l0.7587890625-0.123046875q0.7587890625-0.123046875,1.5380859375-0.21533203125t1.517578125-0.17431640625q2.6044921875-0.328125,5.208984375-0.64599609375t5.25-0.31787109375q0.205078125,0,0.56396484375,0.0205078125t0.7177734375,0.11279296875t0.615234375,0.25634765625t0.25634765625,0.451171875q0,0.205078125-0.19482421875,0.35888671875t-0.46142578125,0.23583984375t-0.54345703125,0.1025390625t-0.44091796875,0.0205078125l-0.35888671875,0t-0.35888671875-0.08203125q-1.0869140625,0-2.14306640625,0.1025390625t-2.14306640625,0.1845703125q0.287109375,0.328125,0.3076171875,0.9228515625t0.041015625,1.025390625q0,7.259765625,0.1025390625,14.4375t0.1845703125,14.4990234375l0,0.041015625q-0.6767578125,0.5947265625-1.15869140625,0.7587890625t-0.97412109375,0.1640625q-0.4716796875,0-0.95361328125-0.17431640625t-1.15869140625-0.74853515625l0-0.041015625l0.1640625-16.0986328125q0-1.599609375-0.041015625-3.52734375t-0.041015625-3.90673828125t0.0615234375-3.82470703125t0.328125-3.2197265625q-1.2099609375,0.123046875-2.5634765625,0.369140625q-1.1689453125,0.205078125-2.2353515625,0.205078125l-0.369140625,0q-0.08203125,0-0.48193359375,0.0205078125t-0.8203125-0.0205078125t-0.7587890625-0.1640625t-0.33837890625-0.41015625z M150.063046875,42.3310546875q0-0.5126953125,0.0615234375-1.03564453125t0.0615234375-1.03564453125l0-0.328125q0-0.6357421875,0.52294921875-0.7998046875t1.07666015625-0.1640625q0.6357421875,0,1.22021484375,0.2666015625t0.58447265625,1.025390625q0.123046875,0.369140625,0.123046875,0.8818359375l0,0.9638671875q0,0.7177734375-0.50244140625,0.99462890625t-1.34326171875,0.27685546875q-0.5947265625,0-1.19970703125-0.21533203125t-0.60498046875-0.83056640625z M157.13147460938,14.3173828125q0-0.287109375,0.39990234375-0.44091796875t0.52294921875-0.15380859375l0.7587890625-0.123046875q0.7587890625-0.123046875,1.5380859375-0.21533203125t1.517578125-0.17431640625q2.6044921875-0.328125,5.208984375-0.64599609375t5.25-0.31787109375q0.205078125,0,0.56396484375,0.0205078125t0.7177734375,0.11279296875t0.615234375,0.25634765625t0.25634765625,0.451171875q0,0.205078125-0.19482421875,0.35888671875t-0.46142578125,0.23583984375t-0.54345703125,0.1025390625t-0.44091796875,0.0205078125l-0.35888671875,0t-0.35888671875-0.08203125q-1.0869140625,0-2.14306640625,0.1025390625t-2.14306640625,0.1845703125q0.287109375,0.328125,0.3076171875,0.9228515625t0.041015625,1.025390625q0,7.259765625,0.1025390625,14.4375t0.1845703125,14.4990234375l0,0.041015625q-0.6767578125,0.5947265625-1.15869140625,0.7587890625t-0.97412109375,0.1640625q-0.4716796875,0-0.95361328125-0.17431640625t-1.15869140625-0.74853515625l0-0.041015625l0.1640625-16.0986328125q0-1.599609375-0.041015625-3.52734375t-0.041015625-3.90673828125t0.0615234375-3.82470703125t0.328125-3.2197265625q-1.2099609375,0.123046875-2.5634765625,0.369140625q-1.1689453125,0.205078125-2.2353515625,0.205078125l-0.369140625,0q-0.08203125,0-0.48193359375,0.0205078125t-0.8203125-0.0205078125t-0.7587890625-0.1640625t-0.33837890625-0.41015625z M177.40693359375,41.28515625q0.041015625-0.861328125,0.041015625-1.681640625q0-2.9736328125,0.21533203125-5.9267578125t0.29736328125-5.9267578125q0.123046875-3.404296875,0.2255859375-6.7470703125t0.41015625-6.7265625q0.08203125-0.8408203125,0.48193359375-1.09716796875t1.19970703125-0.25634765625q0.369140625,0,0.984375,0.1435546875t0.615234375,0.697265625q0.287109375,0.041015625,0.57421875,0.041015625q0.4306640625,0,0.8818359375-0.08203125q0.73828125-0.123046875,1.50732421875-0.27685546875t1.52783203125-0.29736328125t1.4560546875-0.1435546875q0.1640625,0,0.46142578125,0.0205078125t0.5947265625,0.123046875t0.50244140625,0.25634765625t0.205078125,0.39990234375t-0.48193359375,0.44091796875t-1.26123046875,0.33837890625t-1.681640625,0.24609375t-1.763671875,0.17431640625t-1.52783203125,0.11279296875t-0.95361328125,0.041015625l-0.041015625,7.7109375l0.041015625,3.8349609375q0.6357421875,0,1.9072265625-0.041015625q0.5126953125-0.0205078125,1.025390625-0.0205078125q0.779296875,0,1.599609375,0.041015625q1.353515625,0.0615234375,2.4404296875,0.24609375t1.3740234375,0.65625q0,0.287109375-0.29736328125,0.46142578125t-0.66650390625,0.25634765625t-0.74853515625,0.1025390625t-0.54345703125,0.0205078125q-1.517578125,0-3.0556640625-0.0615234375t-3.03515625-0.24609375q0,2.5224609375-0.13330078125,5.00390625t-0.13330078125,5.00390625q0,1.0869140625,0.0205078125,2.14306640625t0.24609375,2.10205078125q0.5537109375-0.041015625,1.19970703125-0.1025390625t1.3125-0.15380859375t1.28173828125-0.15380859375t1.06640625-0.0615234375q0.24609375,0,0.66650390625,0.0615234375t0.861328125,0.205078125t0.7587890625,0.35888671875t0.31787109375,0.50244140625q0,0.328125-0.60498046875,0.58447265625t-1.54833984375,0.41015625t-2.06103515625,0.21533203125t-2.16357421875,0.08203125t-1.88671875,0.0205078125l-1.189453125,0q-1.1279296875,0-1.65087890625-0.42041015625t-0.72802734375-1.09716796875q-0.1640625-0.5537109375-0.1435546875-1.2509765625l0-0.287109375z M194.46266601563,36.9580078125q0-4.4501953125,0.39990234375-8.91064453125t1.67138671875-8.78759765625q0.369140625-1.2919921875,0.9638671875-2.55322265625t1.4560546875-2.24560546875t2.05078125-1.599609375t2.830078125-0.615234375l0.4306640625,0.041015625q1.763671875,0.24609375,2.6044921875,1.42529296875t0.8408203125,2.94287109375q0,0.4716796875-0.11279296875,1.17919921875t-0.35888671875,1.36376953125t-0.66650390625,1.11767578125t-1.05615234375,0.46142578125q-0.287109375-0.041015625-0.52294921875-0.1025390625t-0.44091796875-0.2666015625q0.328125-0.7177734375,0.58447265625-1.4970703125t0.25634765625-1.7841796875q0-0.369140625-0.0615234375-0.943359375t-0.23583984375-1.13818359375t-0.46142578125-0.984375t-0.7998046875-0.42041015625q-1.2919921875,0-2.173828125,1.44580078125t-1.4765625,3.69140625t-0.8818359375,4.962890625t-0.44091796875,5.25t-0.17431640625,4.5732421875t-0.0205078125,2.88134765625q0,0.984375-0.0205078125,2.173828125l0,0.2666015625q0.0205078125,1.0458984375,0.1435546875,1.9892578125q0.1640625,1.06640625,0.6357421875,1.845703125t1.4765625,0.90234375q0.3076171875,0.041015625,0.5947265625,0.041015625q1.189453125,0,2.1533203125-0.6767578125q1.189453125-0.8408203125,2.1123046875-2.18408203125t1.640625-2.953125t1.32275390625-3.04541015625t1.17919921875-2.37890625t1.189453125-0.943359375q0.205078125,0,0.615234375,0.08203125t0.41015625,0.3896484375q0,0.08203125-0.041015625,0.2255859375t-0.1025390625,0.2255859375q-0.5537109375,2.173828125-1.40478515625,4.51171875t-2.173828125,4.25537109375t-3.240234375,3.12744140625t-4.60400390625,1.2099609375q-1.927734375,0-3.12744140625-0.72802734375t-1.845703125-1.9482421875t-0.8818359375-2.75830078125t-0.23583984375-3.1171875z M216.2351953125,18.83935546875q-0.041015625-0.54345703125,0.09228515625-1.025390625t0.50244140625-0.7998046875t1.2509765625-0.31787109375q0.205078125,0,0.50244140625,0.041015625t0.5947265625,0.13330078125t0.48193359375,0.25634765625t0.1845703125,0.451171875q0,0.7587890625,0.05126953125,1.99951171875t0.13330078125,2.583984375t0.15380859375,2.625t0.13330078125,2.08154296875q1.599609375-0.08203125,3.2197265625-0.08203125t3.19921875-0.08203125l2.830078125-0.08203125l0-2.0302734375q0-3.404296875-0.13330078125-6.81884765625t-0.46142578125-6.81884765625q0-0.24609375,0.205078125-0.39990234375t0.48193359375-0.23583984375t0.57421875-0.1025390625t0.46142578125-0.0205078125q0.4716796875,0,1.01513671875,0.1435546875t0.62548828125,0.615234375l0.123046875,0.8818359375q0.5126953125,3.69140625,0.697265625,7.30078125t0.2666015625,7.21875q0.24609375,0.041015625,0.52294921875,0.13330078125t0.56396484375,0.17431640625q0.205078125,0.08203125,0.58447265625,0.24609375t0.37939453125,0.5126953125q0,0.328125-0.287109375,0.5126953125t-0.64599609375,0.27685546875t-0.697265625,0.11279296875t-0.42041015625,0.0205078125q0.041015625,1.517578125,0.041015625,3.02490234375l0,3.02490234375l0,6.6240234375l0,3.69140625q0,0.24609375-0.23583984375,0.44091796875t-0.56396484375,0.31787109375t-0.68701171875,0.1640625t-0.64599609375,0.041015625t-0.6767578125-0.041015625t-0.697265625-0.1640625t-0.54345703125-0.3076171875t-0.23583984375-0.451171875l0-0.8818359375q0.08203125-3.896484375,0.1845703125-7.72119140625t0.205078125-7.68017578125q-2.2353515625,0.08203125-4.54248046875,0.1025390625t-4.58349609375,0.1025390625q0.24609375,2.8916015625,0.56396484375,5.77294921875t0.66650390625,5.77294921875q0,0.24609375-0.23583984375,0.44091796875t-0.5537109375,0.31787109375t-0.6767578125,0.1640625t-0.64599609375,0.041015625q-0.5947265625,0-1.30224609375-0.205078125t-0.78955078125-0.7587890625q-0.24609375-2.173828125-0.46142578125-4.798828125t-0.37939453125-5.36279296875t-0.25634765625-5.36279296875t-0.09228515625-4.7578125q0-0.5126953125-0.041015625-1.05615234375z"/><path fill="#" d=""/></svg>
